Coordinates
version=1
nRows=28
nColumns=23
inDegrees=yes

Units are S.I. units (second, meters, Newtons, ...)
If the header above contains a line with 'inDegrees', this indicates whether rotational values are in degrees (yes) or radians (no).

endheader
time	pelvis_tilt	pelvis_list	pelvis_rotation	pelvis_tx	pelvis_ty	pelvis_tz	hip_flexion_r	hip_adduction_r	hip_rotation_r	knee_angle_r	knee_angle_r_beta	ankle_angle_r	subtalar_angle_r	mtp_angle_r	hip_flexion_l	hip_adduction_l	hip_rotation_l	knee_angle_l	knee_angle_l_beta	ankle_angle_l	subtalar_angle_l	mtp_angle_l
     15.00000000	    -18.30389143	     -0.03614923	     -0.08875155	      2.18597531	      0.92921852	      0.93957097	     48.80073800	      1.49788706	      1.22174174	     74.48397070	      1.29999053	      1.30899448	    -19.22536975	      0.00000000	      5.32712980	      0.75765002	     -6.94123579	     24.45460687	      0.42681341	      4.80493954	     -2.50357954	      0.00000000
     15.00666667	    -19.41284192	     -0.11124556	     -0.58556849	      2.18638050	      0.93192187	      0.94026585	     50.54778136	      1.83399810	      0.97476074	     71.02646680	      1.23964570	      2.19990644	    -19.09519772	      0.00000000	      4.55548978	      0.43568192	     -7.98726315	     22.84514550	      0.39872301	      1.72685947	     -1.38924030	      0.00000000
     15.01333333	    -19.57339854	     -0.44093344	     -1.20075372	      2.18757521	      0.93597100	      0.94113063	     50.95614871	      2.44811840	      0.53780756	     67.11907935	      1.17144893	      2.90500991	    -19.15483085	      0.00000000	      2.53215458	     -0.03557539	     -8.81386446	     20.74022618	      0.36198523	     -1.69403856	     -0.85523305	      0.00000000
     15.02000000	    -20.86506121	     -0.29454104	     -1.59775727	      2.18793437	      0.93790615	      0.94190299	     52.64741412	      2.51741932	      0.18707877	     63.33476451	      1.10540017	      3.82387955	    -18.76811003	      0.00000000	      2.15810060	     -0.09247940	     -9.55755985	     19.43599338	      0.33922208	     -4.16648103	      0.29093123	      0.00000000
     15.02666667	    -20.62198777	     -0.55925267	     -2.16931365	      2.18920086	      0.94182510	      0.94287576	     52.34459831	      3.01323844	     -0.39744179	     59.09012992	      1.03131732	      4.53895184	    -18.06760038	      0.00000000	     -0.14680346	     -0.45669147	    -10.25930933	     17.55937822	      0.30646896	     -7.61505447	      0.74755788	      0.00000000
     15.03333333	    -20.90980067	     -0.67861486	     -2.48800988	      2.19014709	      0.94458863	      0.94371267	     52.54587149	      3.19301615	     -1.16650810	     54.81799276	      0.95675446	      5.40788583	    -16.88244226	      0.00000000	     -1.58759526	     -0.70204522	    -10.55285109	     16.24706714	      0.28356482	    -10.14926378	      1.37117443	      0.00000000
     15.04000000	    -21.11544183	     -0.77421068	     -2.80844034	      2.19109334	      0.94697243	      0.94468593	     52.55379112	      3.37271350	     -2.00794197	     50.47797774	      0.88100691	      6.37544977	    -15.22702700	      0.00000000	     -2.99663500	     -0.93827428	    -10.78240783	     15.20740353	      0.26541926	    -12.19901091	      1.98310785	      0.00000000
     15.04666667	    -21.07156549	     -1.05689798	     -2.90893897	      2.19228992	      0.94931544	      0.94548672	     52.11236000	      3.49305459	     -3.29844811	     46.01612296	      0.80313285	      7.39520259	    -13.02597174	      0.00000000	     -4.53975268	     -1.36606092	    -10.56065180	     14.47041020	      0.25255630	    -13.78202870	      2.37709824	      0.00000000
     15.05333333	    -20.91842094	     -1.33508779	     -2.96936558	      2.19342964	      0.95127619	      0.94638349	     51.47519081	      3.62067420	     -4.71531515	     41.58592845	      0.72581137	      8.53778861	    -10.34347977	      0.00000000	     -6.03969546	     -1.80007918	    -10.13369408	     14.09680924	      0.24603574	    -14.87244088	      2.59599163	      0.00000000
     15.06000000	    -20.63351312	     -1.75206984	     -2.91060703	      2.19469290	      0.95288655	      0.94722065	     50.58795712	      3.79646197	     -6.43683340	     37.20783621	      0.64939925	      9.78490629	     -7.18321248	      0.00000000	     -7.49508538	     -2.40778382	     -9.48792530	     14.16935792	      0.24730195	    -15.49625914	      2.57635317	      0.00000000
     15.06666667	    -20.29642641	     -2.13773606	     -2.82849688	      2.19586349	      0.95394892	      0.94814559	     49.62496652	      4.02296873	     -8.17298904	     33.02819098	      0.57645068	     11.11072961	     -3.79359968	      0.00000000	     -8.80658814	     -2.99585793	     -8.68667820	     14.69790706	      0.25652687	    -15.64852576	      2.40409735	      0.00000000
     15.07333333	    -19.98920310	     -2.47961269	     -2.70105321	      2.19688246	      0.95436961	      0.94905915	     48.71256834	      4.28299351	     -9.83450995	     29.14580752	      0.50869030	     12.45199012	     -0.47748462	      0.00000000	     -9.84492145	     -3.55406561	     -7.73667553	     15.74451937	      0.27479370	    -15.42834346	      2.02001973	      0.00000000
     15.08000000	    -19.74584955	     -2.74793259	     -2.60237975	      2.19769300	      0.95411169	      0.95002377	     47.90941049	      4.62991232	    -11.15891767	     25.61260430	      0.44702428	     13.68661510	      2.34524904	      0.00000000	    -10.56074920	     -4.04846129	     -6.81537044	     17.33099996	      0.30248301	    -14.90659463	      1.59134851	      0.00000000
     15.08666667	    -19.57430385	     -2.94093641	     -2.52857855	      2.19825112	      0.95321212	      0.95094130	     47.24574920	      5.01788226	    -12.08562021	     22.50742883	      0.39282874	     14.77382019	      4.50389789	      0.00000000	    -10.94746054	     -4.46083790	     -5.93096535	     19.43017593	      0.33912054	    -14.20459853	      1.10592210	      0.00000000
     15.09333333	    -19.64658374	     -2.92814585	     -2.53496416	      2.19842885	      0.95143123	      0.95177644	     46.97015769	      5.34418098	    -12.42013019	     19.97498964	      0.34862934	     15.64828316	      5.73510915	      0.00000000	    -10.81463747	     -4.62321379	     -5.03793025	     22.01713471	      0.38427149	    -13.52368023	      0.36605001	      0.00000000
     15.10000000	    -19.53339246	     -3.06409634	     -2.52468453	      2.19866628	      0.94949076	      0.95235469	     46.53314938	      5.71270256	    -12.81453170	     17.97662956	      0.31375137	     16.38418083	      6.57873298	      0.00000000	    -10.69622202	     -4.93803548	     -4.35426372	     24.97203178	      0.43584418	    -12.87082961	     -0.16254613	      0.00000000
     15.10666667	    -19.24315821	     -3.37258799	     -2.52961763	      2.19897692	      0.94736593	      0.95273416	     45.95290318	      6.16744994	    -13.26001441	     16.53714085	      0.28862756	     16.85543968	      6.90851440	      0.00000000	    -10.56827051	     -5.48797938	     -4.08019419	     28.32667674	      0.49439378	    -12.29648453	     -0.17988006	      0.00000000
     15.11333333	    -19.02957993	     -3.54055056	     -2.64249516	      2.19909748	      0.94471627	      0.95298466	     45.64609915	      6.47333172	    -13.57881231	     15.94335987	      0.27826412	     17.20205263	      6.88038978	      0.00000000	    -10.24453593	     -5.77656980	     -3.67339172	     31.82834343	      0.55550939	    -12.23224315	     -0.93056421	      0.00000000
     15.12000000	    -18.80484336	     -3.82589074	     -2.71990445	      2.19919385	      0.94171155	      0.95302050	     45.40375208	      6.74982745	    -14.06651147	     15.97217093	      0.27876697	     17.15826448	      6.47209960	      0.00000000	     -9.70190997	     -6.28218333	     -3.58266335	     35.71647804	      0.62337014	    -12.34211918	     -1.13376500	      0.00000000
     15.12666667	    -18.50390235	     -4.11741095	     -2.92152720	      2.19925177	      0.93838179	      0.95300107	     45.22166577	      7.00918243	    -14.52452967	     16.75896048	      0.29249904	     16.92037399	      5.88497077	      0.00000000	     -9.15026674	     -6.77134014	     -3.67537121	     39.72866280	      0.69339597	    -12.88418213	     -1.52763184	      0.00000000
     15.13333333	    -18.20840124	     -4.35923000	     -3.18311737	      2.19920347	      0.93463427	      0.95291579	     45.18704040	      7.16056507	    -14.94814082	     18.25919215	      0.31868302	     16.41607616	      5.14302215	      0.00000000	     -8.46742195	     -7.19997689	     -3.83246244	     43.86772163	      0.76563618	    -13.87158440	     -2.16754463	      0.00000000
     15.14000000	    -17.54419978	     -4.78260250	     -3.43556842	      2.19937026	      0.93114977	      0.95266902	     44.73284743	      7.40728569	    -15.34825115	     20.12760329	      0.35129295	     15.54046227	      4.23076692	      0.00000000	     -8.14472247	     -7.80684024	     -4.09114846	     47.95837304	      0.83703151	    -15.34646487	     -3.10377507	      0.00000000
     15.14666667	    -17.52028747	     -4.75738461	     -3.81479528	      2.19890800	      0.92629722	      0.95248698	     45.21002370	      7.31492525	    -15.21177939	     22.75041913	      0.39706972	     14.40126503	      2.83834007	      0.00000000	     -6.88913530	     -7.93908114	     -4.27992785	     52.31511510	      0.91307101	    -16.90413013	     -4.20610066	      0.00000000
     15.15333333	    -17.27578645	     -4.78354070	     -4.25882062	      2.19843369	      0.92151455	      0.95243285	     45.43312051	      7.40471146	    -14.57102735	     25.57153170	      0.44630742	     13.09351643	      0.93697938	      0.00000000	     -5.84068256	     -8.12967070	     -4.58874795	     56.57554872	      0.98742960	    -18.72245970	     -5.57295270	      0.00000000
     15.16000000	    -17.04862032	     -4.74040558	     -4.77178241	      2.19770880	      0.91655718	      0.95253866	     45.69999301	      7.59576064	    -13.45037198	     28.60245207	      0.49920696	     11.85061527	     -1.39057739	      0.00000000	     -4.67692220	     -8.28361492	     -4.99528175	     60.81104309	      1.06135292	    -20.49865078	     -6.95745616	      0.00000000
     15.16666667	    -16.83331481	     -4.72442617	     -5.24615208	      2.19684018	      0.91154383	      0.95276053	     45.96298121	      7.88020545	    -12.18401912	     31.74735511	      0.55409588	     10.88240993	     -3.78404787	      0.00000000	     -3.40349493	     -8.52669329	     -5.37527626	     64.99255368	      1.13433405	    -22.09297538	     -8.42386876	      0.00000000
     15.17333333	    -16.72992783	     -4.51853648	     -5.84354399	      2.19556843	      0.90640667	      0.95339589	     46.37384482	      8.29330760	    -10.34167472	     35.02029879	      0.61121952	     10.42185225	     -6.45679794	      0.00000000	     -1.91013361	     -8.61973647	     -5.84798492	     69.08695399	      1.20579482	    -23.31443567	     -9.60493672	      0.00000000
     15.18000000	    -16.60939096	     -4.37114452	     -6.37699735	      2.19422174	      0.90153432	      0.95413225	     46.66423731	      8.78231415	     -8.63414996	     38.22840336	      0.66721151	     10.51120368	     -8.75331599	      0.00000000	     -0.35042879	     -8.84327846	     -6.26251499	     73.03656087	      1.27472846	    -24.20641485	    -10.78366683	      0.00000000
